<svg width="25" height="25" viewBox="0 0 25 25" fill="none" xmlns="http://www.w3.org/2000/svg">
<path d="M14.8008 11.1133C14.0821 11.1133 13.5148 11.731 13.5148 12.5001C13.5148 13.2691 14.0948 13.8869 14.8008 13.8869C15.5194 13.8869 16.0867 13.2691 16.0867 12.5001C16.0867 11.731 15.5068 11.1133 14.8008 11.1133ZM10.1991 11.1133C9.48053 11.1133 8.91321 11.731 8.91321 12.5001C8.91321 13.2691 9.49314 13.8869 10.1991 13.8869C10.9177 13.8869 11.4851 13.2691 11.4851 12.5001C11.4977 11.731 10.9177 11.1133 10.1991 11.1133Z" fill="white"/>
<path d="M20.9405 0H4.04687C2.62226 0 1.4624 1.15986 1.4624 2.58447V19.4781C1.4624 20.9027 2.62226 22.0625 4.04687 22.0625H18.3434L17.6752 19.7554L19.2889 21.2431L20.8144 22.6425L23.5375 25V2.58447C23.5249 1.15986 22.3651 0 20.9405 0ZM16.0741 16.3263C16.0741 16.3263 15.6202 15.7842 15.242 15.3177C16.8936 14.8512 17.5239 13.8301 17.5239 13.8301C17.007 14.1705 16.5153 14.41 16.0741 14.5739C15.4437 14.8386 14.8386 15.0025 14.2461 15.116C13.0358 15.3429 11.9263 15.2799 10.9808 15.1034C10.2622 14.9647 9.64445 14.7756 9.12755 14.5613C8.83759 14.4478 8.52241 14.3091 8.20723 14.1326C8.16941 14.1074 8.13159 14.0948 8.09377 14.0696C8.06855 14.057 8.05595 14.0444 8.04334 14.0444C7.81641 13.9183 7.69034 13.8301 7.69034 13.8301C7.69034 13.8301 8.29548 14.826 9.89659 15.3051C9.51838 15.7842 9.05191 16.3389 9.05191 16.3389C6.26573 16.2506 5.20673 14.4352 5.20673 14.4352C5.20673 10.4135 7.02216 7.14827 7.02216 7.14827C8.83759 5.7993 10.5522 5.83712 10.5522 5.83712L10.6782 5.98841C8.40895 6.63138 7.37516 7.62734 7.37516 7.62734C7.37516 7.62734 7.65252 7.47606 8.11898 7.27434C9.46795 6.6818 10.5396 6.53052 10.9808 6.48009C11.0564 6.46749 11.1195 6.45488 11.1951 6.45488C11.9642 6.35402 12.8341 6.3288 13.7418 6.42966C14.9395 6.56834 16.2254 6.92134 17.5365 7.62734C17.5365 7.62734 16.5406 6.6818 14.3973 6.03884L14.5738 5.83712C14.5738 5.83712 16.301 5.7993 18.1039 7.14827C18.1039 7.14827 19.9193 10.4135 19.9193 14.4352C19.9193 14.4226 18.8603 16.238 16.0741 16.3263Z" fill="white"/>
</svg>
