<svg width="28" height="28" viewBox="0 0 28 28" fill="none" xmlns="http://www.w3.org/2000/svg">
<path fill-rule="evenodd" clip-rule="evenodd" d="M13.9989 0.344971C6.26893 0.344971 0 6.61306 0 14.3456C0 20.5303 4.01112 25.7781 9.5744 27.6303C10.2749 27.7584 10.5301 27.326 10.5301 26.9547C10.5301 26.6221 10.5179 25.742 10.5106 24.574C6.61641 25.4197 5.79478 22.697 5.79478 22.697C5.15792 21.0795 4.24 20.6489 4.24 20.6489C2.96886 19.7809 4.33624 19.798 4.33624 19.798C5.74145 19.8969 6.48059 21.241 6.48059 21.241C7.72939 23.3802 9.75771 22.7623 10.5553 22.4039C10.6825 21.4998 11.0443 20.8827 11.444 20.5329C8.33532 20.1788 5.06677 18.9781 5.06677 13.6134C5.06677 12.0844 5.61255 10.8356 6.50809 9.85665C6.36362 9.50254 5.88326 8.07924 6.64574 6.15147C6.64574 6.15147 7.82061 5.77506 10.4953 7.58596C11.6117 7.27568 12.8098 7.12098 14.0001 7.11496C15.1896 7.11983 16.3869 7.27575 17.505 7.58596C20.1779 5.77506 21.3511 6.15147 21.3511 6.15147C22.1152 8.07924 21.6347 9.50254 21.4912 9.85665C22.3885 10.8356 22.9299 12.0844 22.9299 13.6134C22.9299 18.9918 19.6562 20.1753 16.5381 20.5216C17.04 20.9539 17.4878 21.8083 17.4878 23.1147C17.4878 24.9857 17.4708 26.4958 17.4708 26.9547C17.4708 27.3295 17.7234 27.7652 18.4333 27.6286C23.9923 25.773 28 20.5294 28 14.3456C28 6.61306 21.7311 0.344971 13.9985 0.344971" fill="white"/>
</svg>
