<svg width="26" height="26" viewBox="0 0 26 26" fill="none" xmlns="http://www.w3.org/2000/svg">
<path d="M12.8225 6.24607C9.18469 6.24607 6.25039 9.18102 6.25039 12.8197C6.25039 16.4583 9.18469 19.3933 12.8225 19.3933C16.4604 19.3933 19.3947 16.4583 19.3947 12.8197C19.3947 9.18102 16.4604 6.24607 12.8225 6.24607ZM12.8225 17.0934C10.4717 17.0934 8.54978 15.1768 8.54978 12.8197C8.54978 10.4626 10.4659 8.54597 12.8225 8.54597C15.1791 8.54597 17.0953 10.4626 17.0953 12.8197C17.0953 15.1768 15.1734 17.0934 12.8225 17.0934ZM21.1964 5.97717C21.1964 6.82963 20.51 7.51044 19.6635 7.51044C18.8112 7.51044 18.1306 6.8239 18.1306 5.97717C18.1306 5.13044 18.817 4.4439 19.6635 4.4439C20.51 4.4439 21.1964 5.13044 21.1964 5.97717ZM25.5493 7.53333C25.452 5.47943 24.983 3.66011 23.4787 2.16117C21.9801 0.662223 20.1611 0.193089 18.1077 0.0901081C15.9913 -0.030036 9.648 -0.030036 7.53165 0.0901081C5.48393 0.187368 3.66501 0.656502 2.16068 2.15544C0.656356 3.65439 0.193046 5.47371 0.090088 7.52761C-0.0300293 9.64443 -0.0300293 15.9892 0.090088 18.106C0.187326 20.1599 0.656356 21.9792 2.16068 23.4782C3.66501 24.9771 5.47821 25.4463 7.53165 25.5492C9.648 25.6694 15.9913 25.6694 18.1077 25.5492C20.1611 25.452 21.9801 24.9828 23.4787 23.4782C24.9773 21.9792 25.4463 20.1599 25.5493 18.106C25.6694 15.9892 25.6694 9.65015 25.5493 7.53333ZM22.8152 20.3773C22.369 21.4987 21.5053 22.3626 20.3785 22.8145C18.6911 23.4839 14.6872 23.3294 12.8225 23.3294C10.9579 23.3294 6.94822 23.4782 5.26658 22.8145C4.14548 22.3683 3.28178 21.5044 2.82991 20.3773C2.16068 18.6896 2.31512 14.6848 2.31512 12.8197C2.31512 10.9546 2.1664 6.94405 2.82991 5.26203C3.27606 4.14068 4.13976 3.27679 5.26658 2.82482C6.95394 2.15544 10.9579 2.30992 12.8225 2.30992C14.6872 2.30992 18.6968 2.16117 20.3785 2.82482C21.4996 3.27107 22.3633 4.13496 22.8152 5.26203C23.4844 6.94977 23.3299 10.9546 23.3299 12.8197C23.3299 14.6848 23.4844 18.6953 22.8152 20.3773Z" fill="white"/>
</svg>
