<svg width="28" height="23" viewBox="0 0 28 23" fill="none" xmlns="http://www.w3.org/2000/svg">
<path d="M28 2.72269C26.9515 3.19218 25.8394 3.50035 24.7006 3.63696C25.8868 2.91836 26.7975 1.78045 27.2264 0.424632C26.0988 1.10098 24.8651 1.5775 23.5786 1.83362C22.5307 0.705214 21.0378 0 19.3855 0C16.213 0 13.6408 2.59975 13.6408 5.80622C13.6408 6.26136 13.6917 6.70445 13.7896 7.12953C9.01534 6.88731 4.78253 4.57577 1.94917 1.06285C1.4548 1.92041 1.17152 2.91792 1.17152 3.98188C1.17152 5.99637 2.18575 7.7735 3.72706 8.81479C2.81482 8.78591 1.92265 8.53687 1.12503 8.08846C1.1247 8.11278 1.1247 8.1371 1.1247 8.16154C1.1247 10.9748 3.10483 13.3216 5.73267 13.855C4.88675 14.0875 3.99944 14.1216 3.13852 13.9545C3.86947 16.2613 5.99102 17.9399 8.50467 17.9869C6.53866 19.5441 4.06164 20.4724 1.37036 20.4724C0.906609 20.4724 0.449422 20.4449 0 20.3913C2.5422 22.0387 5.56172 23 8.80578 23C19.3722 23 25.1501 14.1524 25.1501 6.47959C25.1501 6.22775 25.1447 5.97735 25.1335 5.72839C26.2581 4.90663 27.2288 3.88881 28 2.72269Z" fill="white"/>
</svg>
